<svg xmlns="http://www.w3.org/2000/svg" width="1917.611" height="916.914" viewBox="0 0 1917.611 916.914">
  <path id="Path_1" data-name="Path 1" d="M1495.094-34.569s-59.055,10.083-20.165,48.972c33.484,33.484-13.21,51.38-29.016,56.089-2.242.668-10.634,2.127-10.634,2.127s-581.146,35.407-693.494,97.343S571.823,316.879,646.722,328.4s146.917-23.046,146.917-23.046,213.173-60.5,128.192-122.431S397.539,440.75,276.549,560.3s73.458,135.394,231.9-105.146c79.868-121.254-263.862,86.777-546.056,233.9C-212.79,780.386-298.388,795.365-349.43,827.621c-19.85,12.052-72.693,53.839-72.693,53.839" transform="translate(422.433 35.062)" fill="none" stroke="#707070" strokeWidth="1"/>
</svg>
